<svg xmlns="http://www.w3.org/2000/svg" width="24" height="24" viewBox="0 0 24 24">
<path d="M12 3.984c4.407 0 8.016 3.609 8.016 8.016 0 4.406-3.608 8.016-8.016 8.016S3.984 16.407 3.984 12 7.593 3.984 12 3.984m0-2C6.478 1.984 1.984 6.477 1.984 12c0 5.521 4.493 10.016 10.016 10.016S22.016 17.522 22.016 12c0-5.523-4.495-10.016-10.016-10.016zm0 2c4.407 0 8.016 3.609 8.016" fill="#C71612"/>
<path d="M13.406,12l2.578,2.578l-1.406,1.406L12,13.406l-2.578,2.578l-1.406-1.406L10.594,12L8.016,9.421l1.406-1.405L12,10.593 l2.578-2.577l1.406,1.405L13.406,12z" fill="#C71612"/>
</svg>
